<?xml version="1.0" encoding="utf-8"?>
<svg version="1.0" width="500" height="500" viewBox="0 0 75 75" stroke="#111" stroke-width="5" xmlns="http://www.w3.org/2000/svg">
  <g transform="matrix(0.441081, 0, 0, 0.441081, 14.754236, 3.322181)" style="">
    <linearGradient id="SVGID_1_" gradientUnits="userSpaceOnUse" x1="51.3745" y1="0" x2="51.3745" y2="153.7505">
      <stop offset="0" style="stop-color:#ED1C24"/>
      <stop offset="1" style="stop-color:#F47920"/>
    </linearGradient>
    <path fill="url(#SVGID_1_)" d="M55.75,153.75c-30,0-55.75-26-55.75-57.25c0-39.75,27.5-49.25,27.5-49.25s-7.25,9-7.25,16.5 s0.5,8.5,2,8.5S38,62.25,38,39.5c0-30.5-21-37-21-37S20,0,25.25,0s22,3.75,33,23.5S77.5,63,79.75,63s2.5-2.75,2.5-5 C82.25,26.5,70,8,70,8s32.75,20,32.75,79.25S70.25,153.75,55.75,153.75z" style="stroke-width: 0px;"/>
    <linearGradient id="SVGID_2_" gradientUnits="userSpaceOnUse" x1="51.1245" y1="39" x2="51.1245" y2="153.5005">
      <stop offset="0" style="stop-color:#F47920"/>
      <stop offset="1" style="stop-color:#FFC20E"/>
    </linearGradient>
    <path fill="url(#SVGID_2_)" d="M57.25,153.5c-19,0-49.5-14.5-49.5-46.5c0-18.75,7.5-24.25,7.5-24.25s-2.75,12.5,13,12.5 S50.75,78,50.75,63s-5.5-24-5.5-24s10,3.75,12.75,11.25S69.75,83.5,79.75,83.5C89.5,83.5,90.5,62,90.5,62s4,13.5,4,36 S85.5,153.5,57.25,153.5z" style="stroke-width: 0px;"/>
    <linearGradient id="SVGID_3_" gradientUnits="userSpaceOnUse" x1="54.9639" y1="77.5" x2="54.9639" y2="153.5005">
      <stop offset="0" style="stop-color:#FFC20E"/>
      <stop offset="1" style="stop-color:#FFF200"/>
    </linearGradient>
    <path fill="url(#SVGID_3_)" d="M57.25,153.5C36,153.5,25.5,138.75,25.5,129s8-14.75,10-17.75S39.25,101,39.25,101s3,1,3,4.25 s-1.5,6.5-1.5,6.5s9.75,0.5,12.5-11.5S54.5,77.5,54.5,77.5s6.75,3.5,8.5,8.25s5.25,10.75,8.5,12.5s8.684,1.849,10.5,7.75 C86,119,89,153.5,57.25,153.5z" style="stroke-width: 0px;"/>
    <linearGradient id="SVGID_4_" gradientUnits="userSpaceOnUse" x1="57.875" y1="153.75" x2="57.875" y2="99.75">
      <stop offset="0" style="stop-color:#FFFFFF"/>
      <stop offset="1" style="stop-color:#FFF200"/>
    </linearGradient>
    <path fill="url(#SVGID_4_)" d="M55.75,153.75C42.5,153.75,38,145.5,38,140s2.5-8.5,2.5-8.5s0.25,5.25,9.25,5.25 s14.75-14.25,14.75-23s-1.25-14-1.25-14s14.5,8.75,14.5,27S70.25,153.75,55.75,153.75z" style="stroke-width: 0px;"/>
  </g>
  <path d="M 47.354 37.78 L 63.189 56.781 M 63.189 37.78 L 47.354 56.781" stroke-linecap="round" style="paint-order: fill; fill: rgb(219, 244, 221); stroke: rgb(13, 110, 253); stroke-width: 3px;"/>
  <path d="M 39.435 28.278 L 25.976 40.155 L 13.308 40.155 L 13.308 55.198 L 25.976 55.198 L 39.435 67.075 L 39.435 28.278 Z" stroke-linejoin="round" style="fill: rgb(40, 36, 44); paint-order: stroke markers; stroke: rgb(40, 36, 44);"/>
</svg>